<svg xmlns="http://www.w3.org/2000/svg" viewBox="0 0 326.44 325.57"><defs><style>.cls-1{fill:#3e5f89;}.cls-2{fill:#496997;}.cls-3{fill:#254868;}.cls-4{fill:#85a5d0;}.cls-5{fill:#fff6f4;}.cls-6{fill:#fff5f8;}.cls-7{fill:#fff7fa;}.cls-8{fill:#829ecb;}.cls-9{fill:#5671a5;}.cls-10{fill:#6087b0;}.cls-11{fill:#5d80a0;}.cls-12{fill:#5f85b2;}.cls-13{fill:#799ac5;}.cls-14{fill:#9699b6;}.cls-15{fill:#f6bc9e;}.cls-16{fill:#eaa686;}.cls-17{fill:#fff2e0;}.cls-18{fill:#7496bb;}.cls-19{fill:#789bbc;}.cls-20{fill:#58bdb2;}.cls-21{fill:#47aba1;}.cls-22{fill:#5d7fa4;}.cls-23{fill:#c78563;}.cls-24{fill:#a06144;}.cls-25{fill:#efaf92;}.cls-26{fill:#e29f76;}.cls-27{fill:#7698bd;}.cls-28{fill:#58baad;}.cls-29{fill:#58bab0;}.cls-30{fill:#45a99f;}.cls-31{fill:#4aada3;}.cls-32{fill:#273e4c;}.cls-33{fill:#613828;}.cls-34{fill:#744d35;}.cls-35{fill:#6f6359;}.cls-36{fill:#56b8ae;}.cls-37{fill:#51b8ad;}.cls-38{fill:#45a99c;}.cls-39{fill:#4aada0;}.cls-40{fill:#447b78;}.cls-41{fill:#bb8372;}.cls-42{fill:#f5bcab;}.cls-43{fill:#498878;}.cls-44{fill:#56b8ab;}.cls-45{fill:#47ab9e;}.cls-46{fill:#b0826e;}.cls-47{fill:#925747;}.cls-48{fill:#ecb0a0;}.cls-49{fill:#e0ad95;}.cls-50{fill:#52b4a7;}.cls-51{fill:#44a89b;}.cls-52{fill:#a97a65;}.cls-53{fill:#bd805e;}.cls-54{fill:#e29687;}.cls-55{fill:#dfa98e;}.cls-56{fill:#4fb2a5;}.cls-57{fill:#43a79a;}.cls-58{fill:#555d54;}.cls-59{fill:#9e6b52;}.cls-60{fill:#ffc5ac;}.cls-61{fill:#ffd5c8;}.cls-62{fill:#481307;}.cls-63{fill:#4cafa2;}.cls-64{fill:#4db0a3;}.cls-65{fill:#3ea396;}.cls-66{fill:#40a598;}.cls-67{fill:#020202;}.cls-68{fill:#b16e4e;}.cls-69{fill:#6d402b;}.cls-70{fill:#50342a;}.cls-71{fill:#44a296;}.cls-72{fill:#474744;}.cls-73{fill:#39260d;}.cls-74{fill:#453328;}.cls-75{fill:#42a38c;}</style></defs><g id="Layer_2" data-name="Layer 2"><g id="Layer_1-2" data-name="Layer 1"><rect class="cls-1" x="291.23" y="293.57" width="32" height="32"/><rect class="cls-2" x="259.86" y="290.75" width="32" height="32"/><rect class="cls-3" x="227.36" y="291.98" width="32" height="32"/><rect class="cls-4" x="194.36" y="290.72" width="32" height="32"/><rect class="cls-5" x="160.42" y="290.49" width="32" height="32"/><rect class="cls-6" x="128.58" y="290.99" width="32" height="32"/><rect class="cls-7" x="94.68" y="290.78" width="32" height="32"/><rect class="cls-8" x="64.49" y="287.41" width="32" height="32"/><rect class="cls-9" x="33.5" y="291.86" width="32" height="32"/><rect class="cls-10" x="0.96" y="292.48" width="32" height="32"/><rect class="cls-11" x="289.18" y="261.86" width="32" height="32"/><rect class="cls-12" x="256.84" y="258.61" width="32" height="32"/><rect class="cls-13" x="229.64" y="256.75" width="32" height="32"/><rect class="cls-14" x="191.03" y="257.84" width="32" height="32"/><rect class="cls-15" x="161.1" y="256.2" width="32" height="32"/><rect class="cls-16" x="128.64" y="262.33" width="32" height="32"/><rect class="cls-17" x="98.05" y="258.73" width="32" height="32"/><rect class="cls-18" x="66.61" y="257.8" width="32" height="32"/><rect class="cls-19" x="31.88" y="262.49" width="32" height="32"/><rect class="cls-20" y="258.23" width="32" height="32"/><rect class="cls-21" x="289.11" y="225.94" width="32" height="32"/><rect class="cls-21" x="258.2" y="226.01" width="32" height="32"/><rect class="cls-22" x="222.86" y="226.59" width="32" height="32"/><rect class="cls-23" x="196.29" y="225.88" width="32" height="32"/><rect class="cls-24" x="164.51" y="224.1" width="32" height="32"/><rect class="cls-25" x="126.88" y="224.8" width="32" height="32"/><rect class="cls-26" x="94.91" y="230.07" width="32" height="32"/><rect class="cls-27" x="69.55" y="226.08" width="32" height="32"/><rect class="cls-28" x="34.45" y="226.55" width="32" height="32"/><rect class="cls-29" x="3.24" y="229.98" width="32" height="32"/><rect class="cls-30" x="291.09" y="195.79" width="32" height="32"/><rect class="cls-21" x="254.87" y="197.08" width="32" height="32"/><rect class="cls-31" x="229.76" y="195.27" width="32" height="32"/><rect class="cls-32" x="197.26" y="194.59" width="32" height="32"/><rect class="cls-33" x="166.29" y="192.37" width="32" height="32"/><rect class="cls-34" x="129.84" y="197.92" width="32" height="32"/><rect class="cls-35" x="97.09" y="192.92" width="32" height="32"/><rect class="cls-36" x="67.23" y="191.71" width="32" height="32"/><rect class="cls-37" x="35.94" y="193.77" width="32" height="32"/><rect class="cls-36" x="4.95" y="194.66" width="32" height="32"/><rect class="cls-38" x="293.03" y="165.87" width="32" height="32"/><rect class="cls-21" x="259.65" y="164.24" width="32" height="32"/><rect class="cls-39" x="227.59" y="165.8" width="32" height="32"/><rect class="cls-40" x="196.94" y="165.71" width="32" height="32"/><rect class="cls-41" x="161.28" y="166.25" width="32" height="32"/><rect class="cls-42" x="128.15" y="161.64" width="32" height="32"/><rect class="cls-43" x="95.63" y="159.62" width="32" height="32"/><rect class="cls-44" x="65.28" y="166.09" width="32" height="32"/><rect class="cls-36" x="32.81" y="164.93" width="32" height="32"/><rect class="cls-36" x="3.37" y="159.8" width="32" height="32"/><rect class="cls-38" x="286.9" y="132.35" width="32" height="32"/><rect class="cls-45" x="259.54" y="134.68" width="32" height="32"/><rect class="cls-31" x="225.02" y="127.61" width="32" height="32"/><rect class="cls-46" x="193.91" y="127.71" width="32" height="32"/><rect class="cls-47" x="161.4" y="134.51" width="32" height="32"/><rect class="cls-48" x="129.79" y="132.57" width="32" height="32"/><rect class="cls-49" x="99.89" y="129.8" width="32" height="32"/><rect class="cls-50" x="70.18" y="133.33" width="32" height="32"/><rect class="cls-50" x="31.89" y="128.63" width="32" height="32"/><rect class="cls-50" x="4.03" y="132.27" width="32" height="32"/><rect class="cls-38" x="293.14" y="102.91" width="32" height="32"/><rect class="cls-51" x="255.36" y="96.32" width="32" height="32"/><rect class="cls-39" x="230.57" y="102.74" width="32" height="32"/><rect class="cls-52" x="196.58" y="102.05" width="32" height="32"/><rect class="cls-53" x="162.38" y="99.22" width="32" height="32"/><rect class="cls-54" x="131.25" y="99.85" width="32" height="32"/><rect class="cls-55" x="98.75" y="102.88" width="32" height="32"/><rect class="cls-56" x="67.48" y="97.17" width="32" height="32"/><rect class="cls-56" x="38.27" y="99.95" width="32" height="32"/><rect class="cls-56" x="3.25" y="101.36" width="32" height="32"/><rect class="cls-57" x="291.48" y="64.7" width="32" height="32"/><rect class="cls-38" x="260.92" y="70.2" width="32" height="32"/><rect class="cls-58" x="222.67" y="70.27" width="32" height="32"/><rect class="cls-59" x="196.17" y="66.37" width="32" height="32"/><rect class="cls-60" x="165.23" y="67.93" width="32" height="32"/><rect class="cls-61" x="130.61" y="64.28" width="32" height="32"/><rect class="cls-62" x="101.81" y="69.35" width="32" height="32"/><rect class="cls-63" x="65.25" y="69.23" width="32" height="32"/><rect class="cls-39" x="32.52" y="69.92" width="32" height="32"/><rect class="cls-64" x="0.24" y="69.42" width="32" height="32"/><rect class="cls-65" x="294.44" y="31.39" width="32" height="32"/><rect class="cls-66" x="257.96" y="32.91" width="32" height="32"/><rect class="cls-57" x="227.62" y="38.21" width="32" height="32"/><rect class="cls-67" x="194.82" y="37.76" width="32" height="32"/><rect class="cls-68" x="162.98" y="33.63" width="32" height="32"/><rect class="cls-69" x="130.97" y="35.78" width="32" height="32"/><rect class="cls-70" x="95.15" y="34.01" width="32" height="32"/><rect class="cls-45" x="67.16" y="33.87" width="32" height="32"/><rect class="cls-45" x="31.68" y="35.4" width="32" height="32"/><rect class="cls-45" x="2.05" y="33.43" width="32" height="32"/><rect class="cls-71" x="293.77" y="6.77" width="32" height="32"/><rect class="cls-71" x="259.2" width="32" height="32"/><rect class="cls-65" x="223.78" y="0.14" width="32" height="32"/><rect class="cls-72" x="196.94" y="3.37" width="32" height="32"/><rect class="cls-73" x="158.84" y="3.7" width="32" height="32"/><rect class="cls-74" x="134.46" y="0.41" width="32" height="32"/><rect class="cls-75" x="101.67" y="0.45" width="32" height="32"/><rect class="cls-57" x="67.3" y="0.9" width="32" height="32"/><rect class="cls-57" x="36.06" y="2.29" width="32" height="32"/><rect class="cls-57" x="5.47" y="0.61" width="32" height="32"/></g></g></svg>