<svg xmlns="http://www.w3.org/2000/svg" viewBox="0 0 325.62 325.61"><defs><style>.cls-1{fill:#f3efe7;}.cls-2{fill:#f6f2ea;}.cls-3{fill:#f8f4ec;}.cls-4{fill:#f9f5ed;}.cls-5{fill:#fffcf4;}.cls-6{fill:#fefaf2;}.cls-7{fill:#fcfdf4;}.cls-8{fill:#fbf7ef;}.cls-9{fill:#fcf8f0;}.cls-10{fill:#fffbf8;}.cls-11{fill:#bd8eb7;}.cls-12{fill:#ae7ba1;}.cls-13{fill:#b27fa5;}.cls-14{fill:#ede9e1;}.cls-15{fill:#cda17e;}.cls-16{fill:#e6ba9c;}.cls-17{fill:#ffd9bd;}.cls-18{fill:#f0d5b9;}.cls-19{fill:#bb8cb5;}.cls-20{fill:#aa7ca1;}.cls-21{fill:#ae80a5;}.cls-22{fill:#b082a7;}.cls-23{fill:#c09476;}.cls-24{fill:#c0825c;}.cls-25{fill:#e0b18a;}.cls-26{fill:#b788b1;}.cls-27{fill:#b98ab3;}.cls-28{fill:#a879a2;}.cls-29{fill:#ac7da6;}.cls-30{fill:#ae7fa8;}.cls-31{fill:#8f674c;}.cls-32{fill:#e4a689;}.cls-33{fill:#f1b799;}.cls-34{fill:#c6978f;}.cls-35{fill:#a677a0;}.cls-36{fill:#aa7ba4;}.cls-37{fill:#c3967b;}.cls-38{fill:#b8695d;}.cls-39{fill:#eebba8;}.cls-40{fill:#eaaf96;}.cls-41{fill:#b485ae;}.cls-42{fill:#b586af;}.cls-43{fill:#b388af;}.cls-44{fill:#a57ba2;}.cls-45{fill:#b17e6a;}.cls-46{fill:#eeaa93;}.cls-47{fill:#f6af9a;}.cls-48{fill:#eaaa89;}.cls-49{fill:#b084b1;}.cls-50{fill:#b283b1;}.cls-51{fill:#a377a4;}.cls-52{fill:#a478a5;}.cls-53{fill:#a67aa7;}.cls-54{fill:#3b281c;}.cls-55{fill:#5f4339;}.cls-56{fill:#ffd6ca;}.cls-57{fill:#efaf92;}.cls-58{fill:#ac80ad;}.cls-59{fill:#d39a76;}.cls-60{fill:#fac2ac;}.cls-61{fill:#2d1208;}.cls-62{fill:#a87ca9;}.cls-63{fill:#9d719e;}.cls-64{fill:#9f73a0;}.cls-65{fill:#a175a2;}.cls-66{fill:#a276a3;}.cls-67{fill:#4c3e4e;}</style></defs><g id="Layer_2" data-name="Layer 2"><g id="Layer_1-2" data-name="Layer 1"><rect class="cls-1" x="286.62" y="287.66" width="32" height="32"/><rect class="cls-1" x="260.7" y="288.32" width="32" height="32"/><rect class="cls-2" x="228.78" y="291.63" width="32" height="32"/><rect class="cls-3" x="197.27" y="293.61" width="32" height="32"/><rect class="cls-4" x="162.53" y="292.65" width="32" height="32"/><rect class="cls-5" x="130.56" y="286.8" width="32" height="32"/><rect class="cls-5" x="94.21" y="292.96" width="32" height="32"/><rect class="cls-6" x="63.85" y="287.31" width="32" height="32"/><rect class="cls-5" x="30.8" y="289.66" width="32" height="32"/><rect class="cls-7" x="1.91" y="291.21" width="32" height="32"/><rect class="cls-1" x="286.65" y="259.17" width="32" height="32"/><rect class="cls-2" x="254.44" y="256.53" width="32" height="32"/><rect class="cls-8" x="229.89" y="255.46" width="32" height="32"/><rect class="cls-9" x="195.41" y="256.06" width="32" height="32"/><rect class="cls-5" x="159.97" y="256.45" width="32" height="32"/><rect class="cls-5" x="127.54" y="261.88" width="32" height="32"/><rect class="cls-7" x="99.48" y="260.78" width="32" height="32"/><rect class="cls-7" x="65.24" y="261.91" width="32" height="32"/><rect class="cls-10" x="31.47" y="261.11" width="32" height="32"/><rect class="cls-11" x="5.19" y="260.59" width="32" height="32"/><rect class="cls-12" x="293.62" y="228.37" width="32" height="32"/><rect class="cls-13" x="257.91" y="224.19" width="32" height="32"/><rect class="cls-14" x="228.46" y="229.07" width="32" height="32"/><rect class="cls-15" x="193.37" y="226.72" width="32" height="32"/><rect class="cls-16" x="160.86" y="225.98" width="32" height="32"/><rect class="cls-17" x="126.21" y="224.92" width="32" height="32"/><rect class="cls-18" x="98.04" y="228.41" width="32" height="32"/><rect class="cls-19" x="69.43" y="230.46" width="32" height="32"/><rect class="cls-19" x="31.44" y="230.4" width="32" height="32"/><rect class="cls-19" x="2.14" y="227.56" width="32" height="32"/><rect class="cls-20" x="291.62" y="194.93" width="32" height="32"/><rect class="cls-21" x="260.45" y="196.45" width="32" height="32"/><rect class="cls-22" x="227.42" y="194.54" width="32" height="32"/><rect class="cls-23" x="192.76" y="198.73" width="32" height="32"/><rect class="cls-24" x="164.7" y="198.62" width="32" height="32"/><rect class="cls-25" x="128.72" y="197.01" width="32" height="32"/><rect class="cls-26" x="99.86" y="193.41" width="32" height="32"/><rect class="cls-27" x="67.14" y="197.02" width="32" height="32"/><rect class="cls-27" x="35.43" y="197.25" width="32" height="32"/><rect class="cls-27" x="4.06" y="192.45" width="32" height="32"/><rect class="cls-28" x="292.94" y="161.15" width="32" height="32"/><rect class="cls-29" x="258.24" y="164.79" width="32" height="32"/><rect class="cls-30" x="222.33" y="164.89" width="32" height="32"/><rect class="cls-31" x="195.31" y="162.36" width="32" height="32"/><rect class="cls-32" x="163.18" y="163.1" width="32" height="32"/><rect class="cls-33" x="131.85" y="158.91" width="32" height="32"/><rect class="cls-34" x="100.93" y="163.39" width="32" height="32"/><rect class="cls-26" x="68.66" y="163.85" width="32" height="32"/><rect class="cls-26" x="33.51" y="162.81" width="32" height="32"/><rect class="cls-26" x="2.44" y="164.56" width="32" height="32"/><rect class="cls-35" x="291.39" y="132.99" width="32" height="32"/><rect class="cls-36" x="257.12" y="132.87" width="32" height="32"/><rect class="cls-29" x="226.5" y="132.06" width="32" height="32"/><rect class="cls-37" x="192.13" y="132.04" width="32" height="32"/><rect class="cls-38" x="161.2" y="129.79" width="32" height="32"/><rect class="cls-39" x="128.87" y="132.48" width="32" height="32"/><rect class="cls-40" x="100.49" y="127.92" width="32" height="32"/><rect class="cls-41" x="68.55" y="132.49" width="32" height="32"/><rect class="cls-42" x="34.83" y="130.3" width="32" height="32"/><rect class="cls-43" x="2.73" y="128.13" width="32" height="32"/><rect class="cls-35" x="288.73" y="96.74" width="32" height="32"/><rect class="cls-44" x="261.78" y="96.72" width="32" height="32"/><rect class="cls-36" x="222.38" y="99" width="32" height="32"/><rect class="cls-45" x="190.5" y="97.93" width="32" height="32"/><rect class="cls-46" x="165.57" y="101.21" width="32" height="32"/><rect class="cls-47" x="132.21" y="96.98" width="32" height="32"/><rect class="cls-48" x="99.21" y="94.82" width="32" height="32"/><rect class="cls-49" x="66.42" y="101.96" width="32" height="32"/><rect class="cls-50" x="35.57" y="98.41" width="32" height="32"/><rect class="cls-49" x="1.5" y="99.73" width="32" height="32"/><rect class="cls-51" x="292.63" y="64.7" width="32" height="32"/><rect class="cls-52" x="259.52" y="70.51" width="32" height="32"/><rect class="cls-53" x="229.71" y="68.8" width="32" height="32"/><rect class="cls-54" x="194.45" y="69.44" width="32" height="32"/><rect class="cls-55" x="159.58" y="68.13" width="32" height="32"/><rect class="cls-56" x="129.1" y="63.41" width="32" height="32"/><rect class="cls-57" x="100.5" y="64.25" width="32" height="32"/><rect class="cls-58" x="67.93" y="63.35" width="32" height="32"/><rect class="cls-58" x="35.2" y="68.67" width="32" height="32"/><rect class="cls-58" x="3.07" y="64.26" width="32" height="32"/><rect class="cls-51" x="292.17" y="31.13" width="32" height="32"/><rect class="cls-52" x="258.75" y="37.26" width="32" height="32"/><rect class="cls-52" x="228.57" y="36.46" width="32" height="32"/><rect x="195.39" y="37.77" width="32" height="32"/><rect class="cls-59" x="165.81" y="32.27" width="32" height="32"/><rect class="cls-60" x="126.62" y="34.33" width="32" height="32"/><rect class="cls-61" x="101.33" y="33.79" width="32" height="32"/><rect class="cls-62" x="66.47" y="33.98" width="32" height="32"/><rect class="cls-62" x="35.53" y="36.03" width="32" height="32"/><rect class="cls-62" y="36.82" width="32" height="32"/><rect class="cls-63" x="293.35" y="3.6" width="32" height="32"/><rect class="cls-64" x="254.57" y="3.58" width="32" height="32"/><rect class="cls-65" x="223.6" y="0.34" width="32" height="32"/><rect class="cls-51" x="193.05" y="0.91" width="32" height="32"/><rect class="cls-66" x="159.36" y="5.05" width="32" height="32"/><rect class="cls-67" x="126.2" y="4.18" width="32" height="32"/><rect class="cls-52" x="94.64" y="3.68" width="32" height="32"/><rect class="cls-66" x="65.5" y="2.46" width="32" height="32"/><rect class="cls-52" x="32.64" width="32" height="32"/><rect class="cls-53" x="5.57" y="5.59" width="32" height="32"/></g></g></svg>