<svg xmlns="http://www.w3.org/2000/svg" viewBox="0 0 326.55 325.84"><defs><style>.cls-1{fill:#90ced6;}.cls-2{fill:#89ccd2;}.cls-3{fill:#85c8ce;}.cls-4{fill:#92d4da;}.cls-5{fill:#91d3d9;}.cls-6{fill:#95d7dd;}.cls-7{fill:#93d5e0;}.cls-8{fill:#98d6de;}.cls-9{fill:#8dd5df;}.cls-10{fill:#80c3ce;}.cls-11{fill:#8ccad2;}.cls-12{fill:#83c2ca;}.cls-13{fill:#8bced4;}.cls-14{fill:#e6baa5;}.cls-15{fill:#dbb19f;}.cls-16{fill:#82cad4;}.cls-17{fill:#a5b4ca;}.cls-18{fill:#bb8fbc;}.cls-19{fill:#b78cb3;}.cls-20{fill:#b58ab1;}.cls-21{fill:#b3a3c2;}.cls-22{fill:#c99b87;}.cls-23{fill:#bd8b6f;}.cls-24{fill:#edb79c;}.cls-25{fill:#b98eb5;}.cls-26{fill:#bb90b7;}.cls-27{fill:#9d6e4d;}.cls-28{fill:#e6a186;}.cls-29{fill:#d9a57f;}.cls-30{fill:#2b1b07;}.cls-31{fill:#79595d;}.cls-32{fill:#ac7f65;}.cls-33{fill:#e6d3ba;}.cls-34{fill:#bf7875;}.cls-35{fill:#967b63;}.cls-36{fill:#27160a;}.cls-37{fill:#c99a89;}.cls-38{fill:#ebaf9f;}.cls-39{fill:#eda597;}.cls-40{fill:#f3b398;}.cls-41{fill:#624427;}.cls-42{fill:#74563f;}.cls-43{fill:#a16c50;}.cls-44{fill:#a2705c;}.cls-45{fill:#f7bbaa;}.cls-46{fill:#efb7a1;}.cls-47{fill:#866846;}.cls-48{fill:#b388af;}.cls-49{fill:#b188ab;}.cls-50{fill:#45270f;}.cls-51{fill:#f4bb97;}.cls-52{fill:#ffdecb;}.cls-53{fill:#fec6b0;}.cls-54{fill:#3b210d;}.cls-55{fill:#b287ae;}.cls-56{fill:#af86a9;}.cls-57{fill:#b289ac;}.cls-58{fill:#40260e;}.cls-59{fill:#562b10;}.cls-60{fill:#594334;}.cls-61{fill:#4a3425;}.cls-62{fill:#a17a8f;}.cls-63{fill:#9a7991;}.cls-64{fill:#a980a1;}.cls-65{fill:#ad84a7;}.cls-66{fill:#ab82a5;}</style></defs><g id="Layer_2" data-name="Layer 2"><g id="Layer_1-2" data-name="Layer 1"><rect class="cls-1" x="293.48" y="290.99" width="32" height="32"/><rect class="cls-2" x="257.86" y="290.99" width="32" height="32"/><rect class="cls-3" x="227.35" y="292.67" width="32" height="32"/><rect class="cls-4" x="191.73" y="288.93" width="32" height="32"/><rect class="cls-5" x="165.59" y="289.11" width="32" height="32"/><rect class="cls-6" x="129.36" y="293.84" width="32" height="32"/><rect class="cls-7" x="102.38" y="287.87" width="32" height="32"/><rect class="cls-8" x="69.46" y="288.87" width="32" height="32"/><rect class="cls-9" x="35.17" y="288.33" width="32" height="32"/><rect class="cls-10" x="1.09" y="293.73" width="32" height="32"/><rect class="cls-11" x="289.18" y="257.91" width="32" height="32"/><rect class="cls-12" x="260.71" y="254.51" width="32" height="32"/><rect class="cls-13" x="227.34" y="257.59" width="32" height="32"/><rect class="cls-14" x="198.68" y="260.54" width="32" height="32"/><rect class="cls-15" x="164.67" y="255.11" width="32" height="32"/><rect class="cls-16" x="132.43" y="256.44" width="32" height="32"/><rect class="cls-4" x="102.5" y="255.99" width="32" height="32"/><rect class="cls-17" x="63.55" y="261.68" width="32" height="32"/><rect class="cls-18" x="37.75" y="258.64" width="32" height="32"/><rect class="cls-18" y="257.82" width="32" height="32"/><rect class="cls-19" x="294.5" y="223.87" width="32" height="32"/><rect class="cls-20" x="256.85" y="227.86" width="32" height="32"/><rect class="cls-21" x="225.03" y="228.99" width="32" height="32"/><rect class="cls-22" x="192.57" y="227.63" width="32" height="32"/><rect class="cls-23" x="159.81" y="228.79" width="32" height="32"/><rect class="cls-24" x="130.34" y="229.89" width="32" height="32"/><rect class="cls-25" x="97.39" y="225.56" width="32" height="32"/><rect class="cls-26" x="65.48" y="228.96" width="32" height="32"/><rect class="cls-26" x="37.68" y="222.59" width="32" height="32"/><rect class="cls-25" x="4.32" y="226.47" width="32" height="32"/><rect class="cls-19" x="289.71" y="195.15" width="32" height="32"/><rect class="cls-20" x="255.71" y="194.29" width="32" height="32"/><rect class="cls-19" x="225.26" y="197.42" width="32" height="32"/><rect class="cls-27" x="192.51" y="194.93" width="32" height="32"/><rect class="cls-28" x="161.47" y="191.49" width="32" height="32"/><rect class="cls-29" x="132.21" y="195.75" width="32" height="32"/><rect class="cls-30" x="99.8" y="196.74" width="32" height="32"/><rect class="cls-25" x="69.97" y="197.06" width="32" height="32"/><rect class="cls-25" x="36.48" y="193.81" width="32" height="32"/><rect class="cls-25" x="1.37" y="194.47" width="32" height="32"/><rect class="cls-19" x="291.79" y="165.42" width="32" height="32"/><rect class="cls-20" x="256.01" y="163.83" width="32" height="32"/><rect class="cls-31" x="229.43" y="164.34" width="32" height="32"/><rect class="cls-32" x="195.4" y="164.77" width="32" height="32"/><rect class="cls-33" x="165.1" y="158.68" width="32" height="32"/><rect class="cls-34" x="128.1" y="159.26" width="32" height="32"/><rect class="cls-35" x="99.66" y="160.83" width="32" height="32"/><rect class="cls-26" x="67.73" y="161.5" width="32" height="32"/><rect class="cls-19" x="36.15" y="166.21" width="32" height="32"/><rect class="cls-19" x="2.74" y="163.12" width="32" height="32"/><rect class="cls-19" x="291.74" y="128.13" width="32" height="32"/><rect class="cls-20" x="255.44" y="130.3" width="32" height="32"/><rect class="cls-36" x="228.08" y="127.12" width="32" height="32"/><rect class="cls-37" x="191.42" y="132.73" width="32" height="32"/><rect class="cls-38" x="163.14" y="128.67" width="32" height="32"/><rect class="cls-39" x="128.64" y="132.9" width="32" height="32"/><rect class="cls-40" x="95.87" y="128.04" width="32" height="32"/><rect class="cls-41" x="67.48" y="127.79" width="32" height="32"/><rect class="cls-20" x="38.91" y="132.01" width="32" height="32"/><rect class="cls-20" x="2.9" y="131.38" width="32" height="32"/><rect class="cls-20" x="294.55" y="96.12" width="32" height="32"/><rect class="cls-20" x="256.07" y="98.09" width="32" height="32"/><rect class="cls-42" x="229.32" y="99.39" width="32" height="32"/><rect class="cls-43" x="194.64" y="99.46" width="32" height="32"/><rect class="cls-44" x="162.3" y="99.05" width="32" height="32"/><rect class="cls-45" x="130.98" y="102.34" width="32" height="32"/><rect class="cls-46" x="98.52" y="99.22" width="32" height="32"/><rect class="cls-47" x="63.53" y="100.79" width="32" height="32"/><rect class="cls-48" x="34.64" y="100.11" width="32" height="32"/><rect class="cls-48" x="2.61" y="101.94" width="32" height="32"/><rect class="cls-48" x="288.18" y="69.67" width="32" height="32"/><rect class="cls-48" x="257.92" y="70.19" width="32" height="32"/><rect class="cls-49" x="225.57" y="64.21" width="32" height="32"/><rect class="cls-50" x="196.87" y="65.75" width="32" height="32"/><rect class="cls-51" x="160.18" y="68.12" width="32" height="32"/><rect class="cls-52" x="131.22" y="66.01" width="32" height="32"/><rect class="cls-53" x="99.74" y="62.89" width="32" height="32"/><rect class="cls-54" x="65.04" y="65.88" width="32" height="32"/><rect class="cls-55" x="34.23" y="63.79" width="32" height="32"/><rect class="cls-56" x="1.34" y="65.33" width="32" height="32"/><rect class="cls-57" x="291.6" y="34.38" width="32" height="32"/><rect class="cls-48" x="260.72" y="36.47" width="32" height="32"/><rect class="cls-55" x="228.55" y="33.17" width="32" height="32"/><rect class="cls-58" x="197.07" y="38.3" width="32" height="32"/><rect class="cls-59" x="159.56" y="30.61" width="32" height="32"/><rect class="cls-60" x="131.74" y="35.48" width="32" height="32"/><rect class="cls-61" x="95.52" y="30.65" width="32" height="32"/><rect class="cls-62" x="67.46" y="37.37" width="32" height="32"/><rect class="cls-56" x="35.13" y="31.25" width="32" height="32"/><rect class="cls-56" x="3.04" y="33.45" width="32" height="32"/><rect class="cls-56" x="292.34" y="1.95" width="32" height="32"/><rect class="cls-49" x="258.31" y="5.61" width="32" height="32"/><rect class="cls-49" x="227.1" y="4.76" width="32" height="32"/><rect class="cls-56" x="198.56" y="5.3" width="32" height="32"/><rect class="cls-63" x="166.67" y="4.75" width="32" height="32"/><rect class="cls-60" x="127.49" width="32" height="32"/><rect class="cls-64" x="100.68" y="0.4" width="32" height="32"/><rect class="cls-65" x="66.22" y="5.11" width="32" height="32"/><rect class="cls-65" x="33.3" y="4.14" width="32" height="32"/><rect class="cls-66" x="3.39" y="5.66" width="32" height="32"/></g></g></svg>