<svg xmlns="http://www.w3.org/2000/svg" viewBox="0 0 327.71 326.78"><defs><style>.cls-1{fill:#8cb6e2;}.cls-2{fill:#c8a57c;}.cls-3{fill:#d0a87b;}.cls-4{fill:#ac6a42;}.cls-5{fill:#daa580;}.cls-6{fill:#b27847;}.cls-7{fill:#e4c79a;}.cls-8{fill:#c2ecfe;}.cls-9{fill:#cff6ff;}.cls-10{fill:#cdf4fe;}.cls-11{fill:#9cb5d5;}.cls-12{fill:#ceae87;}.cls-13{fill:#da9f75;}.cls-14{fill:#975934;}.cls-15{fill:#9e683e;}.cls-16{fill:#c49b6e;}.cls-17{fill:#c0915c;}.cls-18{fill:#cad3dc;}.cls-19{fill:#d1f8ff;}.cls-20{fill:#a987b1;}.cls-21{fill:#ae89b3;}.cls-22{fill:#dbb086;}.cls-23{fill:#af8058;}.cls-24{fill:#82472e;}.cls-25{fill:#c8917a;}.cls-26{fill:#d2a57e;}.cls-27{fill:#bf9c70;}.cls-28{fill:#926233;}.cls-29{fill:#b18cb1;}.cls-30{fill:#af8ab4;}.cls-31{fill:#c5b992;}.cls-32{fill:#a27b5b;}.cls-33{fill:#5c2e16;}.cls-34{fill:#fcc7be;}.cls-35{fill:#d3957d;}.cls-36{fill:#c99266;}.cls-37{fill:#cda882;}.cls-38{fill:#b388af;}.cls-39{fill:#ae8da2;}.cls-40{fill:#9b7358;}.cls-41{fill:#cb947d;}.cls-42{fill:#eaa1a9;}.cls-43{fill:#fdcdc2;}.cls-44{fill:#caa790;}.cls-45{fill:#c7956d;}.cls-46{fill:#b286b3;}.cls-47{fill:#aa85af;}.cls-48{fill:#aa83b4;}.cls-49{fill:#643a1b;}.cls-50{fill:#d59383;}.cls-51{fill:#86443a;}.cls-52{fill:#fbc7bb;}.cls-53{fill:#ffc2b1;}.cls-54{fill:#d7a27b;}.cls-55{fill:#ac87b1;}.cls-56{fill:#b084b1;}.cls-57{fill:#a984ae;}.cls-58{fill:#be9973;}.cls-59{fill:#cd966b;}.cls-60{fill:#d19f97;}.cls-61{fill:#eaa79b;}.cls-62{fill:#edb5a1;}.cls-63{fill:#c4a689;}.cls-64{fill:#ae82af;}.cls-65{fill:#ac80ad;}.cls-66{fill:#aa7eab;}.cls-67{fill:#a883ad;}.cls-68{fill:#af90a5;}.cls-69{fill:#9a754f;}.cls-70{fill:#ffcaba;}.cls-71{fill:#ffe3d7;}.cls-72{fill:#ffd3bf;}.cls-73{fill:#b087a8;}.cls-74{fill:#a97fa6;}.cls-75{fill:#a77da4;}.cls-76{fill:#917147;}.cls-77{fill:#c3a284;}.cls-78{fill:#f4afa0;}.cls-79{fill:#c7a18a;}.cls-80{fill:#a57ba2;}.cls-81{fill:#a379a0;}.cls-82{fill:#a076a0;}.cls-83{fill:#9b738d;}.cls-84{fill:#a77da7;}.cls-85{fill:#a2789f;}</style></defs><g id="Layer_2" data-name="Layer 2"><g id="Layer_1-2" data-name="Layer 1"><rect class="cls-1" x="295.18" y="291.03" width="32" height="32"/><rect class="cls-2" x="260.75" y="294.77" width="32" height="32"/><rect class="cls-3" x="227.29" y="294.78" width="32" height="32"/><rect class="cls-4" x="197.26" y="294.6" width="32" height="32"/><rect class="cls-5" x="167.15" y="288" width="32" height="32"/><rect class="cls-6" x="132.14" y="289.22" width="32" height="32"/><rect class="cls-7" x="101.58" y="290.95" width="32" height="32"/><rect class="cls-8" x="68.22" y="294.39" width="32" height="32"/><rect class="cls-9" x="37.47" y="292.52" width="32" height="32"/><rect class="cls-10" x="1.45" y="294.42" width="32" height="32"/><rect class="cls-11" x="292.77" y="257.3" width="32" height="32"/><rect class="cls-12" x="261.37" y="263.91" width="32" height="32"/><rect class="cls-13" x="230.68" y="260.07" width="32" height="32"/><rect class="cls-14" x="194.98" y="262.45" width="32" height="32"/><rect class="cls-15" x="160.51" y="261.78" width="32" height="32"/><rect class="cls-16" x="131.22" y="258.54" width="32" height="32"/><rect class="cls-17" x="100.21" y="261.47" width="32" height="32"/><rect class="cls-18" x="71.49" y="263.06" width="32" height="32"/><rect class="cls-19" x="36.07" y="258.28" width="32" height="32"/><rect class="cls-20" x="3.25" y="260.35" width="32" height="32"/><rect class="cls-21" x="294.59" y="229.84" width="32" height="32"/><rect class="cls-22" x="258.08" y="229.43" width="32" height="32"/><rect class="cls-23" x="230.02" y="225.19" width="32" height="32"/><rect class="cls-24" x="195.39" y="231.34" width="32" height="32"/><rect class="cls-25" x="162.59" y="226.68" width="32" height="32"/><rect class="cls-26" x="129.09" y="230.98" width="32" height="32"/><rect class="cls-27" x="98.86" y="230.88" width="32" height="32"/><rect class="cls-28" x="66.37" y="229.75" width="32" height="32"/><rect class="cls-29" x="33.36" y="226.9" width="32" height="32"/><rect class="cls-30" y="225.09" width="32" height="32"/><rect class="cls-21" x="290.7" y="194.28" width="32" height="32"/><rect class="cls-31" x="259.17" y="197.33" width="32" height="32"/><rect class="cls-32" x="227.6" y="198.81" width="32" height="32"/><rect class="cls-33" x="196.37" y="199.95" width="32" height="32"/><rect class="cls-34" x="161.88" y="196.38" width="32" height="32"/><rect class="cls-35" x="131.38" y="193.64" width="32" height="32"/><rect class="cls-36" x="103.74" y="199.22" width="32" height="32"/><rect class="cls-37" x="69.7" y="196.3" width="32" height="32"/><rect class="cls-38" x="36.66" y="198.77" width="32" height="32"/><rect class="cls-21" x="4.65" y="197.3" width="32" height="32"/><rect class="cls-21" x="291.04" y="163.38" width="32" height="32"/><rect class="cls-39" x="256.38" y="160.23" width="32" height="32"/><rect class="cls-40" x="229.88" y="161.16" width="32" height="32"/><rect class="cls-41" x="193.08" y="162.31" width="32" height="32"/><rect class="cls-42" x="165.8" y="166.11" width="32" height="32"/><rect class="cls-43" x="131.57" y="162.94" width="32" height="32"/><rect class="cls-44" x="96.58" y="165.95" width="32" height="32"/><rect class="cls-45" x="66.62" y="161.29" width="32" height="32"/><rect class="cls-30" x="34.49" y="161.76" width="32" height="32"/><rect class="cls-46" x="2.11" y="163.55" width="32" height="32"/><rect class="cls-47" x="292.69" y="133.72" width="32" height="32"/><rect class="cls-48" x="261.47" y="135.79" width="32" height="32"/><rect class="cls-49" x="223.9" y="131.27" width="32" height="32"/><rect class="cls-50" x="198.43" y="130.87" width="32" height="32"/><rect class="cls-51" x="166.67" y="129.77" width="32" height="32"/><rect class="cls-52" x="133.52" y="133.55" width="32" height="32"/><rect class="cls-53" x="102.33" y="132.18" width="32" height="32"/><rect class="cls-54" x="65.45" y="132.15" width="32" height="32"/><rect class="cls-55" x="34.17" y="133.67" width="32" height="32"/><rect class="cls-56" x="6.71" y="128.82" width="32" height="32"/><rect class="cls-57" x="295.71" y="99.72" width="32" height="32"/><rect class="cls-47" x="260.5" y="100.92" width="32" height="32"/><rect class="cls-58" x="231.69" y="103.76" width="32" height="32"/><rect class="cls-59" x="192.47" y="97.58" width="32" height="32"/><rect class="cls-60" x="162.76" y="102.74" width="32" height="32"/><rect class="cls-61" x="134.22" y="99.73" width="32" height="32"/><rect class="cls-62" x="101.23" y="96.72" width="32" height="32"/><rect class="cls-63" x="68.12" y="99.89" width="32" height="32"/><rect class="cls-64" x="33.17" y="102.86" width="32" height="32"/><rect class="cls-65" x="2.45" y="101.93" width="32" height="32"/><rect class="cls-66" x="289.96" y="66.06" width="32" height="32"/><rect class="cls-67" x="262.27" y="65.1" width="32" height="32"/><rect class="cls-68" x="224.74" y="64.4" width="32" height="32"/><rect class="cls-69" x="197.16" y="68.48" width="32" height="32"/><rect class="cls-70" x="164.84" y="67.69" width="32" height="32"/><rect class="cls-71" x="131.21" y="64.21" width="32" height="32"/><rect class="cls-72" x="103.53" y="71.46" width="32" height="32"/><rect class="cls-73" x="64.35" y="71.71" width="32" height="32"/><rect class="cls-74" x="38.32" y="64.43" width="32" height="32"/><rect class="cls-75" x="6.37" y="69.09" width="32" height="32"/><rect class="cls-75" x="291.04" y="35.96" width="32" height="32"/><rect class="cls-75" x="260.94" y="34.09" width="32" height="32"/><rect class="cls-75" x="228.99" y="33.53" width="32" height="32"/><rect class="cls-76" x="196.66" y="38.76" width="32" height="32"/><rect class="cls-77" x="162.35" y="36.63" width="32" height="32"/><rect class="cls-78" x="134.69" y="34.05" width="32" height="32"/><rect class="cls-79" x="101.19" y="33.23" width="32" height="32"/><rect class="cls-75" x="65.92" y="36.72" width="32" height="32"/><rect class="cls-75" x="35.25" y="33.09" width="32" height="32"/><rect class="cls-80" x="3.13" y="34.71" width="32" height="32"/><rect class="cls-81" x="291.74" y="4.27" width="32" height="32"/><rect class="cls-80" x="257.31" y="3.21" width="32" height="32"/><rect class="cls-80" x="226.46" y="2.85" width="32" height="32"/><rect class="cls-80" x="195.41" y="3.73" width="32" height="32"/><rect class="cls-82" x="163.52" y="2.43" width="32" height="32"/><rect class="cls-83" x="128.73" y="6.45" width="32" height="32"/><rect class="cls-84" x="102.73" y="5.34" width="32" height="32"/><rect class="cls-81" x="65.26" width="32" height="32"/><rect class="cls-80" x="38.18" y="6.06" width="32" height="32"/><rect class="cls-85" x="7.19" y="4.99" width="32" height="32"/></g></g></svg>