<svg xmlns="http://www.w3.org/2000/svg" viewBox="0 0 328.95 327.33"><defs><style>.cls-1{fill:#b5b7c5;}.cls-2{fill:#0f0604;}.cls-3{fill:#5c2e2c;}.cls-4{fill:#ecf1fd;}.cls-5{fill:#da9482;}.cls-6{fill:#e1dfeb;}.cls-7{fill:#080300;}.cls-8{fill:#3d2820;}.cls-9{fill:#f5f9ff;}.cls-10{fill:#fbf9ff;}.cls-11{fill:#bcc3d2;}.cls-12{fill:#200b03;}.cls-13{fill:#331d19;}.cls-14{fill:#e4f2ff;}.cls-15{fill:#d2977e;}.cls-16{fill:#c7cdd4;}.cls-17{fill:#160807;}.cls-18{fill:#71483f;}.cls-19{fill:#f4f8ff;}.cls-20{fill:#f6f7f9;}.cls-21{fill:#53afa3;}.cls-22{fill:#46352f;}.cls-23{fill:#301b12;}.cls-24{fill:#b3adb3;}.cls-25{fill:#c1856d;}.cls-26{fill:#f6bba2;}.cls-27{fill:#270906;}.cls-28{fill:#0a0307;}.cls-29{fill:#28110b;}.cls-30{fill:#5cb7ab;}.cls-31{fill:#150a04;}.cls-32{fill:#2f1a11;}.cls-33{fill:#000107;}.cls-34{fill:#9b6956;}.cls-35{fill:#b97f6e;}.cls-36{fill:#20080b;}.cls-37{fill:#3b1e13;}.cls-38{fill:#42413d;}.cls-39{fill:#59b5a9;}.cls-40{fill:#49a59b;}.cls-41{fill:#25150f;}.cls-42{fill:#694039;}.cls-43{fill:#d19a83;}.cls-44{fill:#f3baa9;}.cls-45{fill:#e29b8d;}.cls-46{fill:#2e0e00;}.cls-47{fill:#56b2a6;}.cls-48{fill:#57b3a7;}.cls-49{fill:#52aea2;}.cls-50{fill:#1d0101;}.cls-51{fill:#af796b;}.cls-52{fill:#c6866f;}.cls-53{fill:#f2b8a7;}.cls-54{fill:#f1b19e;}.cls-55{fill:#0a040a;}.cls-56{fill:#55b1a5;}.cls-57{fill:#4faca0;}.cls-58{fill:#3d271a;}.cls-59{fill:#d09c84;}.cls-60{fill:#dfb7a8;}.cls-61{fill:#fdc9bb;}.cls-62{fill:#ffc8b8;}.cls-63{fill:#220d02;}.cls-64{fill:#4daa9e;}.cls-65{fill:#1c0f06;}.cls-66{fill:#9e6555;}.cls-67{fill:#ffc9ae;}.cls-68{fill:#ffd8c7;}.cls-69{fill:#422420;}.cls-70{fill:#52a79d;}.cls-71{fill:#49a69a;}.cls-72{fill:#4ba89c;}.cls-73{fill:#4fada2;}.cls-74{fill:#1e100c;}.cls-75{fill:#dfa37f;}.cls-76{fill:#e8a396;}.cls-77{fill:#3e2b24;}.cls-78{fill:#46a498;}.cls-79{fill:#36a090;}.cls-80{fill:#281b0e;}.cls-81{fill:#3c2e2a;}</style></defs><g id="Layer_2" data-name="Layer 2"><g id="Layer_1-2" data-name="Layer 1"><rect class="cls-1" x="296.39" y="287.85" width="32.2" height="32.1"/><rect class="cls-2" x="265.05" y="294.48" width="32.2" height="32.1"/><rect class="cls-3" x="230.89" y="295.23" width="32.2" height="32.1"/><rect class="cls-4" x="193.97" y="294.77" width="32.2" height="32.1"/><rect class="cls-5" x="168.5" y="288.29" width="32.2" height="32.1"/><rect class="cls-6" x="130.64" y="288.2" width="32.2" height="32.1"/><rect class="cls-7" x="104.14" y="292.34" width="32.2" height="32.1"/><rect class="cls-8" x="64.27" y="292.46" width="32.2" height="32.1"/><rect class="cls-9" x="33.97" y="294.09" width="32.2" height="32.1"/><rect class="cls-10" x="0.46" y="291.92" width="32.2" height="32.1"/><rect class="cls-11" x="291.24" y="259.12" width="32.2" height="32.1"/><rect class="cls-12" x="257.93" y="263.32" width="32.2" height="32.1"/><rect class="cls-13" x="230.29" y="260.32" width="32.2" height="32.1"/><rect class="cls-14" x="197.68" y="257.95" width="32.2" height="32.1"/><rect class="cls-15" x="164.18" y="261.85" width="32.2" height="32.1"/><rect class="cls-16" x="135.87" y="258.99" width="32.2" height="32.1"/><rect class="cls-17" x="99.07" y="263.06" width="32.2" height="32.1"/><rect class="cls-18" x="69.57" y="260.5" width="32.2" height="32.1"/><rect class="cls-19" x="34.73" y="258.9" width="32.2" height="32.1"/><rect class="cls-20" x="6.71" y="262.41" width="32.2" height="32.1"/><rect class="cls-21" x="292.2" y="223.79" width="32.2" height="32.1"/><rect class="cls-22" x="263.44" y="226.76" width="32.2" height="32.1"/><rect class="cls-23" x="230.15" y="225.55" width="32.2" height="32.1"/><rect class="cls-24" x="200.18" y="227.42" width="32.2" height="32.1"/><rect class="cls-25" x="162.96" y="226.18" width="32.2" height="32.1"/><rect class="cls-26" x="135.54" y="228.48" width="32.2" height="32.1"/><rect class="cls-27" x="99.84" y="229.81" width="32.2" height="32.1"/><rect class="cls-28" x="71.5" y="229.3" width="32.2" height="32.1"/><rect class="cls-29" x="38.26" y="230.43" width="32.2" height="32.1"/><rect class="cls-30" x="0.93" y="227.04" width="32.2" height="32.1"/><rect class="cls-21" x="292.97" y="194.29" width="32.2" height="32.1"/><rect class="cls-31" x="260.83" y="197.42" width="32.2" height="32.1"/><rect class="cls-32" x="225.72" y="195.62" width="32.2" height="32.1"/><rect class="cls-33" x="198.45" y="194.53" width="32.2" height="32.1"/><rect class="cls-34" x="161.14" y="194.49" width="32.2" height="32.1"/><rect class="cls-35" x="133.64" y="192.27" width="32.2" height="32.1"/><rect class="cls-36" x="103.84" y="193.01" width="32.2" height="32.1"/><rect class="cls-37" x="70.56" y="193.86" width="32.2" height="32.1"/><rect class="cls-38" x="34.07" y="194.65" width="32.2" height="32.1"/><rect class="cls-39" x="6.13" y="192.05" width="32.2" height="32.1"/><rect class="cls-21" x="291.2" y="165.41" width="32.2" height="32.1"/><rect class="cls-40" x="262.31" y="160.8" width="32.2" height="32.1"/><rect class="cls-41" x="230.22" y="159.59" width="32.2" height="32.1"/><rect class="cls-42" x="193.65" y="159.25" width="32.2" height="32.1"/><rect class="cls-43" x="164.57" y="166.97" width="32.2" height="32.1"/><rect class="cls-44" x="129.18" y="166.59" width="32.2" height="32.1"/><rect class="cls-45" x="102.46" y="165.52" width="32.2" height="32.1"/><rect class="cls-46" x="70.07" y="162.25" width="32.2" height="32.1"/><rect class="cls-47" x="34.08" y="160.54" width="32.2" height="32.1"/><rect class="cls-48" x="2.05" y="166.02" width="32.2" height="32.1"/><rect class="cls-49" x="290.73" y="132.87" width="32.2" height="32.1"/><rect class="cls-49" x="262.22" y="134.9" width="32.2" height="32.1"/><rect class="cls-50" x="229.39" y="126.99" width="32.2" height="32.1"/><rect class="cls-51" x="195.06" y="129.48" width="32.2" height="32.1"/><rect class="cls-52" x="163.69" y="127.67" width="32.2" height="32.1"/><rect class="cls-53" x="129.28" y="132.55" width="32.2" height="32.1"/><rect class="cls-54" x="100.82" y="133.56" width="32.2" height="32.1"/><rect class="cls-55" x="64.52" y="134.1" width="32.2" height="32.1"/><rect class="cls-56" x="37.37" y="132.32" width="32.2" height="32.1"/><rect class="cls-56" x="3.21" y="129.7" width="32.2" height="32.1"/><rect class="cls-57" x="291.53" y="96.15" width="32.2" height="32.1"/><rect class="cls-57" x="258.87" y="100.76" width="32.2" height="32.1"/><rect class="cls-58" x="232.84" y="96.43" width="32.2" height="32.1"/><rect class="cls-59" x="196.11" y="97.56" width="32.2" height="32.1"/><rect class="cls-60" x="166.67" y="102.18" width="32.2" height="32.1"/><rect class="cls-61" x="133.5" y="99.74" width="32.2" height="32.1"/><rect class="cls-62" x="96.86" y="98.69" width="32.2" height="32.1"/><rect class="cls-63" x="66.66" y="96.6" width="32.2" height="32.1"/><rect class="cls-21" x="35.53" y="98.94" width="32.2" height="32.1"/><rect class="cls-21" x="6.73" y="101.75" width="32.2" height="32.1"/><rect class="cls-57" x="293.54" y="66.69" width="32.2" height="32.1"/><rect class="cls-64" x="261.53" y="63.16" width="32.2" height="32.1"/><rect class="cls-65" x="228.7" y="69.88" width="32.2" height="32.1"/><rect class="cls-66" x="198.67" y="65.04" width="32.2" height="32.1"/><rect class="cls-67" x="165" y="65.2" width="32.2" height="32.1"/><rect class="cls-68" x="129.77" y="68.54" width="32.2" height="32.1"/><rect class="cls-69" x="98.22" y="65.95" width="32.2" height="32.1"/><rect class="cls-70" x="65.17" y="69.45" width="32.2" height="32.1"/><rect class="cls-57" x="37" y="70.07" width="32.2" height="32.1"/><rect class="cls-57" x="2.23" y="63.56" width="32.2" height="32.1"/><rect class="cls-71" x="296.75" y="34.97" width="32.2" height="32.1"/><rect class="cls-72" x="262.66" y="32.55" width="32.2" height="32.1"/><rect class="cls-73" x="227.62" y="38.03" width="32.2" height="32.1"/><rect class="cls-74" x="197.93" y="31.13" width="32.2" height="32.1"/><rect class="cls-75" x="165.72" y="35.41" width="32.2" height="32.1"/><rect class="cls-76" x="130.13" y="34.14" width="32.2" height="32.1"/><rect class="cls-77" x="98.93" y="31.51" width="32.2" height="32.1"/><rect class="cls-64" x="65.53" y="33.88" width="32.2" height="32.1"/><rect class="cls-72" x="36.48" y="31.75" width="32.2" height="32.1"/><rect class="cls-72" y="38.42" width="32.2" height="32.1"/><rect class="cls-78" x="291.6" y="5.5" width="32.2" height="32.1"/><rect class="cls-71" x="263.68" y="3.69" width="32.2" height="32.1"/><rect class="cls-78" x="226.46" y="1.81" width="32.2" height="32.1"/><rect class="cls-79" x="196.01" width="32.2" height="32.1"/><rect class="cls-80" x="164.61" y="2.84" width="32.2" height="32.1"/><rect class="cls-81" x="134.45" y="3.81" width="32.2" height="32.1"/><rect class="cls-71" x="102.33" y="3.07" width="32.2" height="32.1"/><rect class="cls-64" x="66.15" y="1.01" width="32.2" height="32.1"/><rect class="cls-71" x="35.87" y="3.11" width="32.2" height="32.1"/><rect class="cls-78" x="5.74" y="0.4" width="32.2" height="32.1"/></g></g></svg>